<?xml version="1.0" encoding="UTF-8"?>
<!DOCTYPE svg PUBLIC "-//W3C//DTD SVG 1.1//EN" "http://www.w3.org/Graphics/SVG/1.1/DTD/svg11.dtd">
<svg xmlns="http://www.w3.org/2000/svg" version="1.1" width="4500px" height="1500px" style="shape-rendering:geometricPrecision; text-rendering:geometricPrecision; image-rendering:optimizeQuality; fill-rule:evenodd; clip-rule:evenodd" xmlns:xlink="http://www.w3.org/1999/xlink">
<g><path style="opacity:0.975" fill="#0cac09" d="M 429.5,399.5 C 471.143,398.993 496.309,418.993 505,459.5C 505.667,500.5 505.667,541.5 505,582.5C 495.875,623.321 470.375,642.821 428.5,641C 395.68,634.846 376.18,615.346 370,582.5C 369.333,541.5 369.333,500.5 370,459.5C 376.013,425.654 395.846,405.654 429.5,399.5 Z"/></g>
<g><path style="opacity:0.935" fill="#fef5e2" d="M 3106.5,456.5 C 3120.18,456.167 3133.85,456.501 3147.5,457.5C 3188.92,463.092 3208.09,486.759 3205,528.5C 3202.54,549.868 3191.37,565.034 3171.5,574C 3159.83,578.586 3147.83,581.252 3135.5,582C 3129.83,582.667 3124.17,582.667 3118.5,582C 3100,581.615 3083,576.115 3067.5,565.5C 3061.65,560.129 3057.15,553.795 3054,546.5C 3047.87,527.899 3048.03,509.232 3054.5,490.5C 3065.61,470.602 3082.61,459.768 3105.5,458C 3106.06,457.617 3106.39,457.117 3106.5,456.5 Z"/></g>
<g><path style="opacity:0.96" fill="#fef5e2" d="M 1005.5,460.5 C 1048.34,456.068 1088.67,463.568 1126.5,483C 1133.04,487.713 1139.71,492.213 1146.5,496.5C 1146.83,499.5 1147.17,502.5 1147.5,505.5C 1143.41,542.993 1140.08,580.66 1137.5,618.5C 1130.65,617.339 1124.65,614.339 1119.5,609.5C 1099.27,597.089 1077.27,590.089 1053.5,588.5C 1039.76,588.774 1027.09,592.441 1015.5,599.5C 1005.46,606.951 1000.79,616.951 1001.5,629.5C 1002.3,648.32 1011.63,660.986 1029.5,667.5C 1036.22,669.158 1042.89,670.658 1049.5,672C 1081.4,672.171 1113.24,672.671 1145,673.5C 1145.67,706.833 1145.67,740.167 1145,773.5C 1113.91,774.496 1082.74,774.829 1051.5,774.5C 1051.5,859.833 1051.5,945.167 1051.5,1030.5C 1008.17,1030.5 964.833,1030.5 921.5,1030.5C 921.5,945.167 921.5,859.833 921.5,774.5C 902.167,774.5 882.833,774.5 863.5,774.5C 863.5,742.5 863.5,710.5 863.5,678.5C 897.97,680.699 932.304,683.199 966.5,686C 974.853,686.832 983.187,686.665 991.5,685.5C 981.294,683.459 970.961,681.625 960.5,680C 890.356,659.572 864.356,613.739 882.5,542.5C 890.046,523.354 901.713,507.02 917.5,493.5C 944.259,475.143 973.592,464.143 1005.5,460.5 Z"/></g>
<g><path style="opacity:0.959" fill="#fef5e2" d="M 2603.5,470.5 C 2647.5,470.5 2691.5,470.5 2735.5,470.5C 2735.67,525.834 2735.5,581.168 2735,636.5C 2731.7,670.772 2727.2,705.105 2721.5,739.5C 2721.83,741.167 2722.17,742.833 2722.5,744.5C 2724.95,739.177 2726.11,733.511 2726,727.5C 2730.14,707.587 2736.14,688.254 2744,669.5C 2768.01,620.394 2807.51,596.06 2862.5,596.5C 2925.67,597.667 2970.33,627 2996.5,684.5C 3003.77,702.121 3009.27,720.121 3013,738.5C 3023.81,801.133 3021.15,862.8 3005,923.5C 2993.45,963.041 2971.28,995.207 2938.5,1020C 2903.71,1040.47 2866.37,1047.13 2826.5,1040C 2798.86,1033.34 2776.19,1018.84 2758.5,996.5C 2749.84,983.374 2742.34,969.708 2736,955.5C 2730.02,937.905 2724.86,920.238 2720.5,902.5C 2719.5,945.161 2719.17,987.828 2719.5,1030.5C 2680.83,1030.5 2642.17,1030.5 2603.5,1030.5C 2603.5,843.833 2603.5,657.167 2603.5,470.5 Z M 2799.5,708.5 C 2815.26,706.69 2829.93,709.69 2843.5,717.5C 2847.5,720.833 2851.5,724.167 2855.5,727.5C 2870.39,746.974 2879.56,768.974 2883,793.5C 2883.04,800.336 2883.71,807.003 2885,813.5C 2886.07,837.826 2882.57,861.493 2874.5,884.5C 2868.08,902.335 2857.08,916.669 2841.5,927.5C 2824.78,937.51 2807.45,938.843 2789.5,931.5C 2774.81,925.478 2763.14,915.811 2754.5,902.5C 2744.89,886.332 2738.89,868.999 2736.5,850.5C 2735.33,831.175 2735.17,811.842 2736,792.5C 2739.33,767.848 2749.16,746.181 2765.5,727.5C 2769.59,725.249 2773.26,722.415 2776.5,719C 2784.2,714.902 2791.86,711.402 2799.5,708.5 Z"/></g>
<g><path style="opacity:0.966" fill="#fef5e2" d="M 3319.5,512.5 C 3346.17,512.5 3372.83,512.5 3399.5,512.5C 3399.5,544.5 3399.5,576.5 3399.5,608.5C 3431.5,608.5 3463.5,608.5 3495.5,608.5C 3495.5,643.833 3495.5,679.167 3495.5,714.5C 3463.5,714.5 3431.5,714.5 3399.5,714.5C 3399.17,770.504 3399.5,826.504 3400.5,882.5C 3404.86,909.993 3420.86,924.66 3448.5,926.5C 3456.79,925.092 3465.13,923.425 3473.5,921.5C 3480.52,918.136 3487.85,915.802 3495.5,914.5C 3495.5,953.167 3495.5,991.833 3495.5,1030.5C 3455.7,1040.92 3415.37,1043.42 3374.5,1038C 3351.99,1033.81 3331.66,1024.98 3313.5,1011.5C 3295.15,995.131 3282.65,975.131 3276,951.5C 3273.72,941.128 3271.72,930.794 3270,920.5C 3269.5,851.167 3269.33,781.834 3269.5,712.5C 3254.17,712.5 3238.83,712.5 3223.5,712.5C 3223.5,683.833 3223.5,655.167 3223.5,626.5C 3272.9,623.932 3303.4,598.598 3315,550.5C 3316.24,543.393 3317.57,536.393 3319,529.5C 3319.5,523.843 3319.67,518.176 3319.5,512.5 Z"/></g>
<g><path style="opacity:0.975" fill="#0cac09" d="M 195.5,533.5 C 267.808,532.883 320.308,564.549 353,628.5C 360.292,645.624 364.792,663.457 366.5,682C 366.344,685.817 365.178,689.317 363,692.5C 314.34,716.33 265.507,716.496 216.5,693C 163.369,663.93 134.536,619.096 130,558.5C 131.709,555.582 133.542,552.748 135.5,550C 154.587,540.731 174.587,535.231 195.5,533.5 Z"/></g>
<g><path style="opacity:0.975" fill="#0cac09" d="M 658.5,533.5 C 686.907,532.281 713.907,537.781 739.5,550C 741.458,552.748 743.291,555.582 745,558.5C 741.05,614.921 715.216,658.087 667.5,688C 616.643,715.941 564.977,717.607 512.5,693C 510.032,689.733 508.698,686.066 508.5,682C 516.782,613.411 553.116,566.745 617.5,542C 631.069,538.019 644.736,535.185 658.5,533.5 Z"/></g>
<g><path style="opacity:0.957" fill="#fef5e2" d="M 1348.5,596.5 C 1378.78,595.627 1408.44,598.627 1437.5,605.5C 1484.56,619.054 1517.72,648.387 1537,693.5C 1545.43,717.338 1550.6,741.672 1552.5,766.5C 1553.5,854.497 1553.83,942.497 1553.5,1030.5C 1515.5,1030.5 1477.5,1030.5 1439.5,1030.5C 1439.83,991.161 1439.5,951.828 1438.5,912.5C 1427.45,978.059 1389.78,1019.89 1325.5,1038C 1291.76,1045.04 1258.43,1043.54 1225.5,1033.5C 1218.3,1030.9 1211.3,1027.74 1204.5,1024C 1175.94,1004.72 1159.77,977.891 1156,943.5C 1152.91,913.789 1158.24,885.789 1172,859.5C 1184.6,841.725 1200.43,827.725 1219.5,817.5C 1246.1,805.494 1273.77,796.66 1302.5,791C 1332.23,785.623 1361.9,779.957 1391.5,774C 1402.16,771.673 1411.82,767.173 1420.5,760.5C 1426.32,744.317 1423.32,729.984 1411.5,717.5C 1393.5,704.962 1373.5,700.295 1351.5,703.5C 1321.42,707.086 1302.25,723.419 1294,752.5C 1292.37,761.025 1291.53,769.692 1291.5,778.5C 1252.06,775.535 1212.73,772.868 1173.5,770.5C 1170.96,732.163 1179.96,696.829 1200.5,664.5C 1218.41,640.591 1241.41,623.591 1269.5,613.5C 1294.67,604.165 1320.67,598.999 1347.5,598C 1348.06,597.617 1348.39,597.117 1348.5,596.5 Z M 1421.5,838.5 C 1425.97,875.55 1413.64,906.05 1384.5,930C 1363.71,943.219 1341.38,947.219 1317.5,942C 1292.1,932.104 1283.6,914.271 1292,888.5C 1294.37,883.13 1297.87,878.63 1302.5,875C 1315,866.588 1328.67,860.588 1343.5,857C 1361.76,852.948 1380.09,849.281 1398.5,846C 1403.69,844.37 1409.02,843.037 1414.5,842C 1417.08,841.14 1419.42,839.973 1421.5,838.5 Z"/></g>
<g><path style="opacity:0.958" fill="#fef5e2" d="M 2153.5,596.5 C 2182.63,593.351 2209.3,599.685 2233.5,615.5C 2239.17,621.167 2244.83,626.833 2250.5,632.5C 2262.34,650.183 2270.34,669.517 2274.5,690.5C 2276.78,704.017 2278.94,717.35 2281,730.5C 2281.5,746.497 2281.67,762.497 2281.5,778.5C 2282.83,778.5 2284.17,778.5 2285.5,778.5C 2287.23,743.815 2294.06,710.149 2306,677.5C 2330.67,618.876 2374.83,592.043 2438.5,597C 2484.29,602.286 2516.29,626.119 2534.5,668.5C 2542.61,688.915 2548.11,709.915 2551,731.5C 2551.04,738.004 2551.71,744.338 2553,750.5C 2553.5,843.833 2553.67,937.166 2553.5,1030.5C 2509.5,1030.5 2465.5,1030.5 2421.5,1030.5C 2421.67,946.833 2421.5,863.166 2421,779.5C 2419.71,762.128 2414.88,745.794 2406.5,730.5C 2392.54,713.637 2375.54,709.971 2355.5,719.5C 2347.9,725.094 2340.9,731.427 2334.5,738.5C 2319.35,762.441 2309.85,788.441 2306,816.5C 2304.68,828.482 2303.52,840.482 2302.5,852.5C 2301.5,911.83 2301.17,971.163 2301.5,1030.5C 2258.17,1030.5 2214.83,1030.5 2171.5,1030.5C 2171.67,944.499 2171.5,858.499 2171,772.5C 2169.44,760.945 2166.61,749.612 2162.5,738.5C 2152.8,718.976 2137.13,711.143 2115.5,715C 2103.95,718.685 2094.29,725.185 2086.5,734.5C 2074.77,750.95 2066.61,768.95 2062,788.5C 2058.46,805.113 2055.96,821.78 2054.5,838.5C 2053.5,902.497 2053.17,966.497 2053.5,1030.5C 2008.83,1030.5 1964.17,1030.5 1919.5,1030.5C 1919.5,889.833 1919.5,749.167 1919.5,608.5C 1957.5,608.5 1995.5,608.5 2033.5,608.5C 2033.17,665.171 2033.5,721.837 2034.5,778.5C 2037,760.585 2039.67,742.585 2042.5,724.5C 2047.53,696.719 2056.87,670.719 2070.5,646.5C 2089.77,616.7 2117.1,600.533 2152.5,598C 2153.06,597.617 2153.39,597.117 2153.5,596.5 Z"/></g>
<g><path style="opacity:0.958" fill="#fef5e2" d="M 3700.5,596.5 C 3733.97,595.071 3766.64,599.237 3798.5,609C 3833.12,621.8 3860.46,643.633 3880.5,674.5C 3892.33,694.807 3900.49,716.473 3905,739.5C 3906.53,754.941 3908.03,770.275 3909.5,785.5C 3907.87,797.054 3907.03,808.721 3907,820.5C 3905.88,827.846 3904.71,835.179 3903.5,842.5C 3895.66,842.036 3887.99,842.536 3880.5,844C 3801.36,844.373 3722.36,845.207 3643.5,846.5C 3645.07,869.683 3651.41,891.683 3662.5,912.5C 3673.98,928.988 3689.64,938.655 3709.5,941.5C 3722.17,942.833 3734.83,942.833 3747.5,941.5C 3777.86,934.283 3792.69,914.95 3792,883.5C 3792.5,883 3793,882.5 3793.5,882C 3791.3,879.24 3790.96,876.24 3792.5,873C 3832.83,874.759 3873.16,876.592 3913.5,878.5C 3918.34,955.838 3883.67,1007 3809.5,1032C 3773.24,1042.05 3736.24,1045.39 3698.5,1042C 3588.24,1031.08 3527.41,970.244 3516,859.5C 3512.36,812.213 3517.7,766.213 3532,721.5C 3561.6,644.545 3617.43,603.378 3699.5,598C 3700.06,597.617 3700.39,597.117 3700.5,596.5 Z M 3703.5,702.5 C 3725.95,698.743 3746.29,703.41 3764.5,716.5C 3778.15,731.82 3785.15,749.82 3785.5,770.5C 3739.64,771.938 3693.64,772.605 3647.5,772.5C 3650.12,754.973 3656.45,738.973 3666.5,724.5C 3676.7,713.246 3689.03,705.912 3703.5,702.5 Z"/></g>
<g><path style="opacity:0.954" fill="#fef5e2" d="M 4109.5,596.5 C 4150.19,594.012 4189.52,599.678 4227.5,613.5C 4289.85,641.203 4316.52,688.87 4307.5,756.5C 4301.49,756.334 4295.49,756.501 4289.5,757C 4257.98,760.895 4226.32,763.895 4194.5,766C 4197.17,727.319 4179.51,703.652 4141.5,695C 4130.17,694.333 4118.83,694.333 4107.5,695C 4089.83,696.648 4077.33,705.481 4070,721.5C 4068.73,732.394 4072.56,741.061 4081.5,747.5C 4094.03,754.931 4107.36,760.431 4121.5,764C 4145.8,769.824 4170.13,775.491 4194.5,781C 4221.21,787.692 4246.54,797.692 4270.5,811C 4314.69,839.478 4332.85,879.978 4325,932.5C 4321.71,951.092 4314.54,968.092 4303.5,983.5C 4293.37,994.966 4282.04,1004.97 4269.5,1013.5C 4237.5,1030.45 4203.5,1039.95 4167.5,1042C 4124.81,1044.86 4082.81,1040.86 4041.5,1030C 3985.33,1012.84 3952.83,975.342 3944,917.5C 3943.5,905.171 3943.33,892.838 3943.5,880.5C 3982.3,877.378 4020.97,874.045 4059.5,870.5C 4062.35,922.008 4089.68,947.342 4141.5,946.5C 4159.66,947.983 4176.32,943.65 4191.5,933.5C 4196.44,927.621 4199.77,920.954 4201.5,913.5C 4200.26,909.462 4198.92,905.462 4197.5,901.5C 4192.23,894.864 4185.57,890.197 4177.5,887.5C 4171.61,885.639 4165.94,883.472 4160.5,881C 4126.14,872.822 4092.14,863.822 4058.5,854C 4031.7,846.265 4006.7,834.765 3983.5,819.5C 3957.75,798.15 3945.08,770.65 3945.5,737C 3947.25,678.822 3974.92,638.155 4028.5,615C 4040.93,610.452 4053.59,606.452 4066.5,603C 4081.02,600.779 4095.35,598.612 4109.5,596.5 Z"/></g>
<g><path style="opacity:0.953" fill="#fef5e2" d="M 1808.5,598.5 C 1829.22,597.157 1849.22,599.991 1868.5,607C 1873.94,610.054 1879.61,612.554 1885.5,614.5C 1884.24,650.649 1882.41,686.649 1880,722.5C 1879.5,735.829 1879.33,749.163 1879.5,762.5C 1871.61,760.724 1864.28,757.558 1857.5,753C 1850.11,750.296 1842.78,747.629 1835.5,745C 1793.95,734.776 1764.28,749.276 1746.5,788.5C 1739.43,808.595 1735.26,829.262 1734,850.5C 1733.5,910.499 1733.33,970.499 1733.5,1030.5C 1689.5,1030.5 1645.5,1030.5 1601.5,1030.5C 1601.5,889.833 1601.5,749.167 1601.5,608.5C 1640.17,608.5 1678.83,608.5 1717.5,608.5C 1717.17,663.837 1717.5,719.171 1718.5,774.5C 1719.12,772.034 1719.96,769.701 1721,767.5C 1722.64,730.282 1729.64,694.282 1742,659.5C 1747.63,645.394 1755.46,632.727 1765.5,621.5C 1772.49,615.005 1780.16,609.505 1788.5,605C 1794.62,602.742 1800.95,601.075 1807.5,600C 1808.06,599.617 1808.39,599.117 1808.5,598.5 Z"/></g>
<g><path style="opacity:0.969" fill="#fef5e2" d="M 3061.5,608.5 C 3105.5,608.5 3149.5,608.5 3193.5,608.5C 3193.5,749.167 3193.5,889.833 3193.5,1030.5C 3149.5,1030.5 3105.5,1030.5 3061.5,1030.5C 3061.5,889.833 3061.5,749.167 3061.5,608.5 Z"/></g>
<g><path style="opacity:0.979" fill="#d60000" d="M 418.5,718.5 C 490.079,714.384 548.246,740.051 593,795.5C 633.359,852.336 642.692,914.003 621,980.5C 596.596,1043.24 552.096,1084.07 487.5,1103C 474.127,1106.72 460.627,1108.55 447,1108.5C 446.312,1107.67 446.479,1107 447.5,1106.5C 473.822,1096.53 485.322,1077.53 482,1049.5C 475.255,1025.76 459.588,1012.43 435,1009.5C 440.868,981.422 432.368,958.922 409.5,942C 379.862,926.514 353.695,931.014 331,955.5C 327.995,959.506 325.495,963.84 323.5,968.5C 299.085,964.486 276.252,968.819 255,981.5C 253.347,981.18 252.347,980.18 252,978.5C 230.417,909.097 241.75,845.764 286,788.5C 320.969,747.93 365.136,724.597 418.5,718.5 Z"/></g>
</svg>
